# xmcd CD database file
#
# Track frame offsets:
#	150
#	13566
#	26739
#	39164
#	50995
#	62081
#	76255
#	88187
#	100691
#	111693
#	122414
#	135307
#	146316
#	166730
#	178248
#	192271
#	206501
#	218994
#	231774
#	242669
#	255003
#	268161
#	280383
#	293171
#	306106
#
# Disc length: 4252 seconds
#
# Revision: 0
# Processed by: cddbd v1.5.1PL2 Copyright (c) Steve Scherf et al.
# Submitted via: CDex 1.50
#
DISCID=63109a19
DTITLE=Various Artist - 100 Rhythm and Blues Classics Disc 2
DYEAR=1900
DGENRE=Blues
TTITLE0=Clyde McPhatter and the Drifters - Money Honey
TTITLE1=Little Walter - Mean Old World
TTITLE2=The Midnighters - Work with me Annie
TTITLE3=Willie Mabon - I'm Mad
TTITLE4=Dinah Washington - Fat Daddy
TTITLE5=The Harptones - Sunday kind of Love
TTITLE6=Fats Domino - Please Don't Leave me
TTITLE7=Arthur "Big Boy" Crudup - So Glad You're Mine
TTITLE8=The Chords - Sh-Boom (Life Could be a Dream)
TTITLE9=Little Junior Parker - Mystery Train
TTITLE10=Muddy Waters - I'm Your Hoochie Coochie Man
TTITLE11=Nellie Lutcher - Hurry on Down
TTITLE12=Louis Jordan - Saturday Night Fish Fry
TTITLE13=The Clovers - Fool, Fool, Fool
TTITLE14=Laverne Baker - Tweedle Dee
TTITLE15=The Five Keys - The Glory of Love
TTITLE16=Tiny Bradshaw - The Train Kept A-Rollin'
TTITLE17=Sonny Boy Williamson - Nine Below Zero
TTITLE18=The Dominoes - Have Mercy Baby
TTITLE19=Ray Charles - It Should've Been Me
TTITLE20=Ruth Brown - Mama, He Treats Your Daughter Mean
TTITLE21=Howlin' Wolf - How Many More Years
TTITLE22=Jackie Brenston - Rocket 88
TTITLE23=Big Maybelle - One Monkey Don't Stop No Show
TTITLE24=Little Richard - Thinkin' 'bout my Mother
EXTD=
EXTT0=
EXTT1=
EXTT2=
EXTT3=
EXTT4=
EXTT5=
EXTT6=
EXTT7=
EXTT8=
EXTT9=
EXTT10=
EXTT11=
EXTT12=
EXTT13=
EXTT14=
EXTT15=
EXTT16=
EXTT17=
EXTT18=
EXTT19=
EXTT20=
EXTT21=
EXTT22=
EXTT23=
EXTT24=
PLAYORDER=
